# xmcd CD database file
# Copyright (C) 1993-1996 Ti Kan
#
# Track frame offsets:
# 150
# 12815
# 25550
# 38813
# 51128
# 62885
# 76103
# 88680
# 100243
# 111738
#
# Disc length: 1637 seconds
#
# Revision: 0
# Processed by: cddbd v1.4b41PL1 Copyright (c) Steve Scherf et al.
# Submitted via: inCDius 1.1b5
#
DISCID=7506630a
DTITLE=Little Jimmy Dickens - Country Giant
DYEAR=1900
DGENRE=
TTITLE0=Take An Old ColdTater (And Wait)
TTITLE1=My Heart's Bouquet
TTITLE2=Country Boy
TTITLE3=A-Sleepin' At The Foot Of The Bed
TTITLE4=Take Me As I Am (Or Let Me Go)
TTITLE5=Hillbilly Fever
TTITLE6=You All Come
TTITLE7=We Could
TTITLE8=I Got A Hole In My Pocket
TTITLE9=May The Bird Of Paradise
EXTD=
EXTT0=
EXTT1=
EXTT2=
EXTT3=
EXTT4=
EXTT5=
EXTT6=
EXTT7=
EXTT8=
EXTT9=
PLAYORDER=
